# xmcd CD database file
#
# Track frame offsets:
#	150
#	23701
#	44139
#	61352
#	83091
#	104767
#	125753
#	148795
#	175580
#	196374
#	212803
#	237392
#	255218
#	276659
#	301471
#
# Disc length: 4360 seconds
#
# Revision: 3
# Processed by: cddbd v1.5.2PL0 Copyright (c) Steve Scherf et al.
# Submitted via: NeoAudio 9.9.9
#
DISCID=e511060f
DTITLE=Various Artist - The Crossover Experience Disc 2
DYEAR=2011
DGENRE=Jazz+Funk
TTITLE0=Yutaka - Brazasia
TTITLE1=Paul Brown - Moment By Moment
TTITLE2=Seawind - The Two Of Us
TTITLE3=David Spinozza - Doesn't She Know By Now
TTITLE4=Eloise Laws - Love Comes Easy
TTITLE5=Sadao Watanabe - Old Photograph
TTITLE6=Joe Sample - Night Flight
TTITLE7=Dave Gruisin - Friends and Strangers
TTITLE8=Eric Marienthal - I'm Gonna Wait on Your Love
TTITLE9=Deodato - Adam's Hotel
TTITLE10=Yutaka - Warm and Sunny Sunday Morning
TTITLE11=Special EFX - Jamaica Jamaica
TTITLE12=George Howard - Grazin' in the Grass
TTITLE13=Nelson Rangell - Sonora
TTITLE14=Dave Valentin - We'll Make Love
EXTD=YEAR: 2011
EXTT0=
EXTT1=
EXTT2=
EXTT3=
EXTT4=
EXTT5=
EXTT6=
EXTT7=
EXTT8=
EXTT9=
EXTT10=
EXTT11=
EXTT12=
EXTT13=
EXTT14=
PLAYORDER=
